<svg width="64" height="64" viewBox="0 0 64 64" fill="none" xmlns="http://www.w3.org/2000/svg">
<path d="M48 0C56.8366 0 64 7.16344 64 16V48C64 56.8366 56.8366 64 48 64H16C7.16344 64 0 56.8366 0 48V16C0 7.16344 7.16344 0 16 0H48Z" fill="#D1FAE5"/>
<path d="M48 0C56.8366 0 64 7.16344 64 16V48C64 56.8366 56.8366 64 48 64H16C7.16344 64 0 56.8366 0 48V16C0 7.16344 7.16344 0 16 0H48Z" stroke="#E5E7EB"/>
<path d="M44 48H20V16H44V48Z" stroke="#E5E7EB"/>
<g clip-path="url(#clip0_619_1427)">
<path d="M27.3359 39.9859L26.7453 41.3688C25.8687 40.9234 25.0625 40.375 24.3313 39.7328L25.3953 38.6688C25.9812 39.1797 26.6328 39.625 27.3359 39.9859ZM21.9031 31.75H20.3984C20.4641 32.7437 20.6516 33.7047 20.9469 34.6141L22.3438 34.0563C22.1141 33.3203 21.9594 32.5469 21.9031 31.75ZM21.9031 30.25C21.9687 29.3687 22.1469 28.5156 22.4234 27.7141L21.0406 27.1234C20.6891 28.1078 20.4688 29.1578 20.3984 30.25H21.9031ZM23.0141 26.3359C23.3797 25.6375 23.8203 24.9859 24.3313 24.3906L23.2672 23.3266C22.625 24.0578 22.0719 24.8641 21.6312 25.7406L23.0141 26.3359ZM38.6094 38.6688C37.9578 39.2313 37.2312 39.7141 36.4484 40.0938L37.0062 41.4906C37.9766 41.0266 38.8719 40.4313 39.6734 39.7281L38.6094 38.6688ZM25.3906 23.3313C26.0422 22.7688 26.7688 22.2859 27.5516 21.9062L26.9937 20.5094C26.0234 20.9734 25.1281 21.5688 24.3313 22.2719L25.3906 23.3313ZM40.9859 35.6641C40.6203 36.3625 40.1797 37.0141 39.6688 37.6094L40.7328 38.6734C41.375 37.9422 41.9281 37.1313 42.3688 36.2594L40.9859 35.6641ZM42.0969 31.75C42.0312 32.6313 41.8531 33.4844 41.5766 34.2859L42.9594 34.8766C43.3109 33.8875 43.5312 32.8375 43.5969 31.7453H42.0969V31.75ZM35.0563 40.6562C34.3203 40.8906 33.5469 41.0406 32.75 41.0969V42.6016C33.7437 42.5359 34.7047 42.3484 35.6141 42.0531L35.0563 40.6562ZM31.25 41.0969C30.3687 41.0312 29.5156 40.8531 28.7141 40.5766L28.1234 41.9594C29.1125 42.3109 30.1625 42.5312 31.2547 42.5969V41.0969H31.25ZM41.6562 27.9438C41.8906 28.6797 42.0406 29.4531 42.0969 30.25H43.6016C43.5359 29.2563 43.3484 28.2953 43.0531 27.3859L41.6562 27.9438ZM24.3313 37.6094C23.7688 36.9578 23.2859 36.2312 22.9062 35.4484L21.5094 36.0062C21.9734 36.9766 22.5688 37.8719 23.2719 38.6734L24.3313 37.6094ZM32.75 20.9031C33.6313 20.9687 34.4797 21.1469 35.2859 21.4234L35.8766 20.0406C34.8922 19.6891 33.8422 19.4688 32.75 19.3984V20.9031ZM28.9438 21.3438C29.6797 21.1094 30.4531 20.9594 31.25 20.9031V19.3984C30.2563 19.4641 29.2953 19.6516 28.3859 19.9469L28.9438 21.3438ZM40.7328 23.3266L39.6688 24.3906C40.2313 25.0422 40.7141 25.7688 41.0984 26.5516L42.4953 25.9937C42.0312 25.0234 41.4359 24.1281 40.7328 23.3266ZM38.6094 23.3313L39.6734 22.2672C38.9422 21.625 38.1359 21.0719 37.2594 20.6312L36.6688 22.0141C37.3625 22.3797 38.0187 22.8203 38.6094 23.3313Z" fill="#059669"/>
<path d="M32 37.375C32.7249 37.375 33.3125 36.7874 33.3125 36.0625C33.3125 35.3376 32.7249 34.75 32 34.75C31.2751 34.75 30.6875 35.3376 30.6875 36.0625C30.6875 36.7874 31.2751 37.375 32 37.375Z" fill="#059669"/>
<path d="M32.3609 33.625H31.6109C31.3015 33.625 31.0484 33.3719 31.0484 33.0625C31.0484 29.7344 34.6765 30.0672 34.6765 28.0094C34.6765 27.0719 33.8422 26.125 31.9859 26.125C30.6219 26.125 29.9094 26.575 29.2109 27.4703C29.0281 27.7047 28.6906 27.7516 28.4515 27.5828L27.8375 27.1516C27.575 26.9687 27.514 26.5984 27.7156 26.3453C28.7094 25.0703 29.8906 24.25 31.9906 24.25C34.4422 24.25 36.5562 25.6469 36.5562 28.0094C36.5562 31.1781 32.9281 30.9859 32.9281 33.0625C32.9234 33.3719 32.6703 33.625 32.3609 33.625Z" fill="#059669"/>
</g>
<defs>
<clipPath id="clip0_619_1427">
<path d="M20 19H44V43H20V19Z" fill="white"/>
</clipPath>
</defs>
</svg>
