<svg width="46" height="48" viewBox="0 0 46 48" fill="none" xmlns="http://www.w3.org/2000/svg">
<path d="M33.1406 0C39.768 0 45.1406 5.37258 45.1406 12V36C45.1406 42.6274 39.768 48 33.1406 48H12C5.37258 48 0 42.6274 0 36V12C0 5.37258 5.37258 5.15422e-07 12 0H33.1406Z" fill="#D1FAE5"/>
<path d="M33.1406 0C39.768 0 45.1406 5.37258 45.1406 12V36C45.1406 42.6274 39.768 48 33.1406 48H12C5.37258 48 0 42.6274 0 36V12C0 5.37258 5.37258 5.15422e-07 12 0H33.1406Z" stroke="#E5E7EB"/>
<path d="M35.0625 38H10.0625V10H35.0625V38Z" stroke="#E5E7EB"/>
<g clip-path="url(#clip0_619_1487)">
<path d="M22.5625 14.75C22.2461 14.75 21.9336 14.8047 21.6367 14.9102L10.6797 18.8672C10.3086 19.0039 10.0625 19.3555 10.0625 19.75C10.0625 20.1445 10.3086 20.4961 10.6797 20.6328L12.9414 21.4492C12.3008 22.457 11.9375 23.6484 11.9375 24.9023V26C11.9375 27.1094 11.5156 28.2539 11.0664 29.1562C10.8125 29.6641 10.5234 30.1641 10.1875 30.625C10.0625 30.793 10.0273 31.0117 10.0976 31.2109C10.168 31.4102 10.332 31.5586 10.5351 31.6094L13.0351 32.2344C13.1992 32.2773 13.375 32.2461 13.5195 32.1562C13.6641 32.0664 13.7656 31.918 13.7969 31.75C14.1328 30.0781 13.9648 28.5781 13.7148 27.5039C13.5898 26.9492 13.4219 26.3828 13.1875 25.8633V24.9023C13.1875 23.7227 13.5859 22.6094 14.2773 21.7188C14.7812 21.1133 15.4336 20.625 16.1992 20.3242L22.332 17.9141C22.6523 17.7891 23.0156 17.9453 23.1406 18.2656C23.2656 18.5859 23.1094 18.9492 22.7891 19.0742L16.6562 21.4844C16.1719 21.6758 15.7461 21.9688 15.3984 22.3281L21.6328 24.5781C21.9297 24.6836 22.2422 24.7383 22.5586 24.7383C22.875 24.7383 23.1875 24.6836 23.4844 24.5781L34.4453 20.6328C34.8164 20.5 35.0625 20.1445 35.0625 19.75C35.0625 19.3555 34.8164 19.0039 34.4453 18.8672L23.4883 14.9102C23.1914 14.8047 22.8789 14.75 22.5625 14.75ZM15.0625 29.4375C15.0625 30.8164 18.4219 32.25 22.5625 32.25C26.7031 32.25 30.0625 30.8164 30.0625 29.4375L29.4648 23.7578L23.9101 25.7656C23.4766 25.9219 23.0195 26 22.5625 26C22.1055 26 21.6445 25.9219 21.2148 25.7656L15.6601 23.7578L15.0625 29.4375Z" fill="#059669"/>
</g>
<defs>
<clipPath id="clip0_619_1487">
<path d="M10.0625 13.5H35.0625V33.5H10.0625V13.5Z" fill="white"/>
</clipPath>
</defs>
</svg>
