<svg width="27" height="24" viewBox="0 0 27 24" fill="none" xmlns="http://www.w3.org/2000/svg">
<g clip-path="url(#clip0_1148_115)">
<path d="M0 4.5H27C27 2.84531 25.6547 1.5 24 1.5H3C1.34531 1.5 0 2.84531 0 4.5ZM0 6V19.5C0 21.1547 1.34531 22.5 3 22.5H24C25.6547 22.5 27 21.1547 27 19.5V6H0ZM3 18.9984C3 17.6156 4.12031 16.5 5.49844 16.5H11.0016C12.3844 16.5 13.5 17.6203 13.5 18.9984C13.5 19.275 13.275 19.5 12.9984 19.5H3.50156C3.225 19.5 3 19.275 3 18.9984ZM8.25 9C9.04565 9 9.80871 9.31607 10.3713 9.87868C10.9339 10.4413 11.25 11.2044 11.25 12C11.25 12.7956 10.9339 13.5587 10.3713 14.1213C9.80871 14.6839 9.04565 15 8.25 15C7.45435 15 6.69129 14.6839 6.12868 14.1213C5.56607 13.5587 5.25 12.7956 5.25 12C5.25 11.2044 5.56607 10.4413 6.12868 9.87868C6.69129 9.31607 7.45435 9 8.25 9ZM16.5 9.75C16.5 9.3375 16.8375 9 17.25 9H23.25C23.6625 9 24 9.3375 24 9.75C24 10.1625 23.6625 10.5 23.25 10.5H17.25C16.8375 10.5 16.5 10.1625 16.5 9.75ZM16.5 12.75C16.5 12.3375 16.8375 12 17.25 12H23.25C23.6625 12 24 12.3375 24 12.75C24 13.1625 23.6625 13.5 23.25 13.5H17.25C16.8375 13.5 16.5 13.1625 16.5 12.75ZM16.5 15.75C16.5 15.3375 16.8375 15 17.25 15H23.25C23.6625 15 24 15.3375 24 15.75C24 16.1625 23.6625 16.5 23.25 16.5H17.25C16.8375 16.5 16.5 16.1625 16.5 15.75Z" fill="white"/>
</g>
<defs>
<clipPath id="clip0_1148_115">
<path d="M0 0H27V24H0V0Z" fill="white"/>
</clipPath>
</defs>
</svg>
