<svg width="18" height="17" viewBox="0 0 18 17" fill="none" xmlns="http://www.w3.org/2000/svg">
<path d="M17.5 17H0V0H17.5V17Z" stroke="#E5E7EB"/>
<g clip-path="url(#clip0_619_1535)">
<path d="M5.68755 11.375C8.82935 11.375 11.3751 9.22031 11.3751 6.5625C11.3751 3.90469 8.82935 1.75 5.68755 1.75C2.54576 1.75 5.51215e-05 3.90469 5.51215e-05 6.5625C5.51215e-05 7.61797 0.402008 8.59414 1.08287 9.38984C0.987164 9.64687 0.844977 9.87383 0.694586 10.0652C0.563336 10.2348 0.429352 10.366 0.330914 10.4563C0.281696 10.5 0.24068 10.5355 0.213336 10.5574C0.199664 10.5684 0.188727 10.5766 0.183258 10.5793L0.177789 10.5848C0.0273989 10.6969 -0.0382261 10.8938 0.0219301 11.0715C0.0820864 11.2492 0.248883 11.375 0.437555 11.375C1.03365 11.375 1.63521 11.2219 2.1356 11.0332C2.38716 10.9375 2.62232 10.8309 2.8274 10.7215C3.66685 11.1371 4.64302 11.375 5.68755 11.375ZM12.2501 6.5625C12.2501 9.6332 9.54029 11.9465 6.33013 12.2227C6.99459 14.257 9.19849 15.75 11.8126 15.75C12.8571 15.75 13.8333 15.5121 14.6754 15.0965C14.8805 15.2059 15.1129 15.3125 15.3645 15.4082C15.8649 15.5969 16.4665 15.75 17.0626 15.75C17.2512 15.75 17.4208 15.627 17.4782 15.4465C17.5356 15.266 17.4727 15.0691 17.3196 14.957L17.3141 14.9516C17.3086 14.9461 17.2977 14.9406 17.284 14.9297C17.2567 14.9078 17.2157 14.875 17.1665 14.8285C17.068 14.7383 16.934 14.607 16.8028 14.4375C16.6524 14.2461 16.5102 14.0164 16.4145 13.7621C17.0954 12.9691 17.4973 11.993 17.4973 10.9348C17.4973 8.39727 15.1758 6.31641 12.2309 6.13594C12.2419 6.27539 12.2473 6.41758 12.2473 6.55977L12.2501 6.5625Z" fill="#3B82F6"/>
</g>
<defs>
<clipPath id="clip0_619_1535">
<path d="M0 1.75H17.5V15.75H0V1.75Z" fill="white"/>
</clipPath>
</defs>
</svg>
