<svg width="64" height="64" viewBox="0 0 64 64" fill="none" xmlns="http://www.w3.org/2000/svg">
<path d="M32 0C49.6731 0 64 14.3269 64 32C64 49.6731 49.6731 64 32 64C14.3269 64 0 49.6731 0 32C0 14.3269 14.3269 0 32 0Z" fill="url(#paint0_linear_1148_58)"/>
<path d="M32 0C49.6731 0 64 14.3269 64 32C64 49.6731 49.6731 64 32 64C14.3269 64 0 49.6731 0 32C0 14.3269 14.3269 0 32 0Z" stroke="#E5E7EB"/>
<path d="M45.5 48H18.5V16H45.5V48Z" stroke="#E5E7EB"/>
<g clip-path="url(#clip0_1148_58)">
<path d="M18.5 23.5H45.5C45.5 21.8453 44.1547 20.5 42.5 20.5H21.5C19.8453 20.5 18.5 21.8453 18.5 23.5ZM18.5 25V38.5C18.5 40.1547 19.8453 41.5 21.5 41.5H42.5C44.1547 41.5 45.5 40.1547 45.5 38.5V25H18.5ZM21.5 37.9984C21.5 36.6156 22.6203 35.5 23.9984 35.5H29.5016C30.8844 35.5 32 36.6203 32 37.9984C32 38.275 31.775 38.5 31.4984 38.5H22.0016C21.725 38.5 21.5 38.275 21.5 37.9984ZM26.75 28C27.5456 28 28.3087 28.3161 28.8713 28.8787C29.4339 29.4413 29.75 30.2044 29.75 31C29.75 31.7956 29.4339 32.5587 28.8713 33.1213C28.3087 33.6839 27.5456 34 26.75 34C25.9544 34 25.1913 33.6839 24.6287 33.1213C24.0661 32.5587 23.75 31.7956 23.75 31C23.75 30.2044 24.0661 29.4413 24.6287 28.8787C25.1913 28.3161 25.9544 28 26.75 28ZM35 28.75C35 28.3375 35.3375 28 35.75 28H41.75C42.1625 28 42.5 28.3375 42.5 28.75C42.5 29.1625 42.1625 29.5 41.75 29.5H35.75C35.3375 29.5 35 29.1625 35 28.75ZM35 31.75C35 31.3375 35.3375 31 35.75 31H41.75C42.1625 31 42.5 31.3375 42.5 31.75C42.5 32.1625 42.1625 32.5 41.75 32.5H35.75C35.3375 32.5 35 32.1625 35 31.75ZM35 34.75C35 34.3375 35.3375 34 35.75 34H41.75C42.1625 34 42.5 34.3375 42.5 34.75C42.5 35.1625 42.1625 35.5 41.75 35.5H35.75C35.3375 35.5 35 35.1625 35 34.75Z" fill="white"/>
</g>
<defs>
<linearGradient id="paint0_linear_1148_58" x1="0" y1="32" x2="64" y2="32" gradientUnits="userSpaceOnUse">
<stop stop-color="#008751"/>
<stop offset="1" stop-color="#10B981"/>
</linearGradient>
<clipPath id="clip0_1148_58">
<path d="M18.5 19H45.5V43H18.5V19Z" fill="white"/>
</clipPath>
</defs>
</svg>
