<svg width="64" height="64" viewBox="0 0 64 64" fill="none" xmlns="http://www.w3.org/2000/svg">
<path d="M32 0C49.6731 0 64 14.3269 64 32C64 49.6731 49.6731 64 32 64C14.3269 64 0 49.6731 0 32C0 14.3269 14.3269 0 32 0Z" fill="#059669"/>
<path d="M32 0C49.6731 0 64 14.3269 64 32C64 49.6731 49.6731 64 32 64C14.3269 64 0 49.6731 0 32C0 14.3269 14.3269 0 32 0Z" stroke="#E5E7EB"/>
<path d="M47 48H17V16H47V48Z" stroke="#E5E7EB"/>
<g clip-path="url(#clip0_619_1401)">
<path d="M31.461 25.3422C31.7938 25.0469 31.9251 24.5828 31.7516 24.1703C31.6438 23.9219 31.5266 23.6781 31.3954 23.4437L31.2501 23.1906C31.1094 22.9562 30.9547 22.7266 30.7907 22.5062C30.5235 22.15 30.0547 22.0328 29.6329 22.1734L28.311 22.6094C27.8094 22.1969 27.2329 21.8594 26.6141 21.6297L26.3282 20.2703C26.2391 19.8344 25.9016 19.4875 25.461 19.4359C25.1516 19.3938 24.8375 19.375 24.5188 19.375H24.486C24.1672 19.375 23.8532 19.3937 23.5438 19.4312C23.1032 19.4828 22.7657 19.8344 22.6766 20.2656L22.3907 21.6297C21.7672 21.8641 21.1954 22.1969 20.6938 22.6094L19.3672 22.1781C18.9454 22.0375 18.4766 22.1547 18.2094 22.5109C18.0454 22.7312 17.8907 22.9609 17.7454 23.1953L17.6047 23.4437C17.4735 23.6781 17.3563 23.9219 17.2485 24.175C17.0751 24.5828 17.2063 25.0469 17.5391 25.3469L18.5797 26.275C18.5282 26.5891 18.5001 26.9172 18.5001 27.25C18.5001 27.5828 18.5282 27.9109 18.5797 28.2297L17.5391 29.1578C17.2063 29.4531 17.0751 29.9172 17.2485 30.3297C17.3563 30.5781 17.4735 30.8219 17.6047 31.0609L17.7454 31.3047C17.886 31.5437 18.0407 31.7687 18.2094 31.9891C18.4766 32.3453 18.9454 32.4625 19.3672 32.3219L20.6891 31.8859C21.1907 32.2984 21.7672 32.6359 22.386 32.8656L22.6719 34.2297C22.761 34.6656 23.0985 35.0125 23.5391 35.0641C23.8532 35.1016 24.1719 35.1203 24.4954 35.1203C24.8188 35.1203 25.1375 35.1016 25.4516 35.0641C25.8922 35.0125 26.2297 34.6609 26.3188 34.2297L26.6047 32.8656C27.2282 32.6312 27.8 32.2984 28.3016 31.8859L29.6235 32.3219C30.0454 32.4625 30.5141 32.3453 30.7813 31.9891C30.9454 31.7687 31.1 31.5437 31.2407 31.3047L31.386 31.0516C31.5172 30.8172 31.6344 30.5734 31.7422 30.325C31.9157 29.9172 31.7844 29.4531 31.4516 29.1531L30.411 28.225C30.4626 27.9062 30.4907 27.5781 30.4907 27.2453C30.4907 26.9125 30.4626 26.5844 30.411 26.2656L31.4516 25.3375L31.461 25.3422ZM22.2501 27.25C22.2501 26.6533 22.4871 26.081 22.9091 25.659C23.331 25.2371 23.9033 25 24.5 25C25.0968 25 25.6691 25.2371 26.091 25.659C26.513 26.081 26.75 26.6533 26.75 27.25C26.75 27.8467 26.513 28.419 26.091 28.841C25.6691 29.2629 25.0968 29.5 24.5 29.5C23.9033 29.5 23.331 29.2629 22.9091 28.841C22.4871 28.419 22.2501 27.8467 22.2501 27.25ZM40.6579 42.4609C40.9532 42.7937 41.4172 42.925 41.8297 42.7516C42.0782 42.6437 42.3219 42.5266 42.5563 42.3953L42.8094 42.25C43.0438 42.1094 43.2735 41.9547 43.4938 41.7906C43.8501 41.5234 43.9672 41.0547 43.8266 40.6328L43.3907 39.3109C43.8032 38.8094 44.1407 38.2328 44.3704 37.6141L45.7344 37.3281C46.1704 37.2391 46.5172 36.9016 46.5688 36.4609C46.6063 36.1469 46.625 35.8281 46.625 35.5047C46.625 35.1812 46.6063 34.8625 46.5688 34.5484C46.5172 34.1078 46.1657 33.7703 45.7344 33.6812L44.3704 33.3906C44.136 32.7672 43.8032 32.1953 43.3907 31.6937L43.8266 30.3719C43.9672 29.95 43.8501 29.4812 43.4938 29.2141C43.2735 29.05 43.0438 28.8953 42.8094 28.75L42.561 28.6094C42.3266 28.4781 42.0829 28.3609 41.8297 28.2531C41.4219 28.0797 40.9579 28.2109 40.6579 28.5437L39.7297 29.5844C39.411 29.5328 39.0829 29.5047 38.75 29.5047C38.4172 29.5047 38.0891 29.5328 37.7704 29.5844L36.8422 28.5437C36.5469 28.2109 36.0829 28.0797 35.6704 28.2531C35.4219 28.3609 35.1782 28.4781 34.9391 28.6094L34.6954 28.75C34.4563 28.8906 34.2313 29.0453 34.011 29.2141C33.6547 29.4812 33.5375 29.95 33.6782 30.3719L34.1141 31.6937C33.7016 32.1953 33.3641 32.7719 33.1344 33.3906L31.7704 33.6719C31.3344 33.7609 30.9875 34.0984 30.936 34.5391C30.8985 34.8531 30.8797 35.1719 30.8797 35.4953C30.8797 35.8187 30.8985 36.1375 30.936 36.4516C30.9875 36.8922 31.3391 37.2297 31.7704 37.3187L33.1344 37.6047C33.3688 38.2281 33.7016 38.8 34.1141 39.3016L33.6782 40.6234C33.5375 41.0453 33.6547 41.5141 34.011 41.7812C34.2313 41.9453 34.4563 42.1 34.6954 42.2406L34.9485 42.3859C35.1829 42.5172 35.4266 42.6344 35.6751 42.7422C36.0829 42.9156 36.5469 42.7844 36.8469 42.4516L37.7751 41.4109C38.0938 41.4625 38.4219 41.4906 38.7547 41.4906C39.0876 41.4906 39.4157 41.4625 39.7344 41.4109L40.6625 42.4516L40.6579 42.4609ZM38.75 33.25C39.0455 33.25 39.3381 33.3082 39.6111 33.4213C39.8841 33.5343 40.1321 33.7001 40.341 33.909C40.55 34.1179 40.7157 34.366 40.8288 34.639C40.9419 34.9119 41 35.2045 41 35.5C41 35.7955 40.9419 36.0881 40.8288 36.361C40.7157 36.634 40.55 36.8821 40.341 37.091C40.1321 37.2999 39.8841 37.4657 39.6111 37.5787C39.3381 37.6918 39.0455 37.75 38.75 37.75C38.4546 37.75 38.162 37.6918 37.889 37.5787C37.616 37.4657 37.368 37.2999 37.1591 37.091C36.9501 36.8821 36.7844 36.634 36.6713 36.361C36.5582 36.0881 36.5 35.7955 36.5 35.5C36.5 35.2045 36.5582 34.9119 36.6713 34.639C36.7844 34.366 36.9501 34.1179 37.1591 33.909C37.368 33.7001 37.616 33.5343 37.889 33.4213C38.162 33.3082 38.4546 33.25 38.75 33.25Z" fill="white"/>
</g>
<defs>
<clipPath id="clip0_619_1401">
<path d="M17 19H47V43H17V19Z" fill="white"/>
</clipPath>
</defs>
</svg>
