<svg width="64" height="64" viewBox="0 0 64 64" fill="none" xmlns="http://www.w3.org/2000/svg">
<path d="M32 0C49.6731 0 64 14.3269 64 32C64 49.6731 49.6731 64 32 64C14.3269 64 0 49.6731 0 32C0 14.3269 14.3269 0 32 0Z" fill="#059669"/>
<path d="M32 0C49.6731 0 64 14.3269 64 32C64 49.6731 49.6731 64 32 64C14.3269 64 0 49.6731 0 32C0 14.3269 14.3269 0 32 0Z" stroke="#E5E7EB"/>
<path d="M44 48H20V16H44V48Z" stroke="#E5E7EB"/>
<g clip-path="url(#clip0_619_1405)">
<path d="M33.5 20.5C33.5 19.6703 32.8297 19 32 19C31.1703 19 30.5 19.6703 30.5 20.5V31.8766L27.0594 28.4359C26.4734 27.85 25.5219 27.85 24.9359 28.4359C24.35 29.0219 24.35 29.9734 24.9359 30.5594L30.9359 36.5594C31.5219 37.1453 32.4734 37.1453 33.0594 36.5594L39.0594 30.5594C39.6453 29.9734 39.6453 29.0219 39.0594 28.4359C38.4734 27.85 37.5219 27.85 36.9359 28.4359L33.5 31.8766V20.5ZM23 35.5C21.3453 35.5 20 36.8453 20 38.5V40C20 41.6547 21.3453 43 23 43H41C42.6547 43 44 41.6547 44 40V38.5C44 36.8453 42.6547 35.5 41 35.5H36.2422L34.1188 37.6234C32.9469 38.7953 31.0484 38.7953 29.8766 37.6234L27.7578 35.5H23ZM40.25 38.125C40.5484 38.125 40.8345 38.2435 41.0455 38.4545C41.2565 38.6655 41.375 38.9516 41.375 39.25C41.375 39.5484 41.2565 39.8345 41.0455 40.0455C40.8345 40.2565 40.5484 40.375 40.25 40.375C39.9516 40.375 39.6655 40.2565 39.4545 40.0455C39.2435 39.8345 39.125 39.5484 39.125 39.25C39.125 38.9516 39.2435 38.6655 39.4545 38.4545C39.6655 38.2435 39.9516 38.125 40.25 38.125Z" fill="white"/>
</g>
<defs>
<clipPath id="clip0_619_1405">
<path d="M20 19H44V43H20V19Z" fill="white"/>
</clipPath>
</defs>
</svg>
