<svg width="64" height="64" viewBox="0 0 64 64" fill="none" xmlns="http://www.w3.org/2000/svg">
<path d="M32 0C49.6731 0 64 14.3269 64 32C64 49.6731 49.6731 64 32 64C14.3269 64 0 49.6731 0 32C0 14.3269 14.3269 0 32 0Z" fill="url(#paint0_linear_1148_64)"/>
<path d="M32 0C49.6731 0 64 14.3269 64 32C64 49.6731 49.6731 64 32 64C14.3269 64 0 49.6731 0 32C0 14.3269 14.3269 0 32 0Z" stroke="#E5E7EB"/>
<path d="M44 48H20V16H44V48Z" stroke="#E5E7EB"/>
<g clip-path="url(#clip0_1148_64)">
<path d="M39.5 28.75C39.5 30.9016 38.8016 32.8891 37.625 34.5016L43.5594 40.4406C44.1453 41.0266 44.1453 41.9781 43.5594 42.5641C42.9734 43.15 42.0219 43.15 41.4359 42.5641L35.5016 36.625C33.8891 37.8062 31.9016 38.5 29.75 38.5C24.3641 38.5 20 34.1359 20 28.75C20 23.3641 24.3641 19 29.75 19C35.1359 19 39.5 23.3641 39.5 28.75ZM29.75 35.5C30.6364 35.5 31.5142 35.3254 32.3331 34.9862C33.1521 34.647 33.8962 34.1498 34.523 33.523C35.1498 32.8962 35.647 32.1521 35.9862 31.3331C36.3254 30.5142 36.5 29.6364 36.5 28.75C36.5 27.8636 36.3254 26.9858 35.9862 26.1669C35.647 25.3479 35.1498 24.6038 34.523 23.977C33.8962 23.3502 33.1521 22.853 32.3331 22.5138C31.5142 22.1746 30.6364 22 29.75 22C28.8636 22 27.9858 22.1746 27.1669 22.5138C26.3479 22.853 25.6038 23.3502 24.977 23.977C24.3502 24.6038 23.853 25.3479 23.5138 26.1669C23.1746 26.9858 23 27.8636 23 28.75C23 29.6364 23.1746 30.5142 23.5138 31.3331C23.853 32.1521 24.3502 32.8962 24.977 33.523C25.6038 34.1498 26.3479 34.647 27.1669 34.9862C27.9858 35.3254 28.8636 35.5 29.75 35.5Z" fill="white"/>
</g>
<defs>
<linearGradient id="paint0_linear_1148_64" x1="0" y1="32" x2="64" y2="32" gradientUnits="userSpaceOnUse">
<stop stop-color="#008751"/>
<stop offset="1" stop-color="#10B981"/>
</linearGradient>
<clipPath id="clip0_1148_64">
<path d="M20 19H44V43H20V19Z" fill="white"/>
</clipPath>
</defs>
</svg>
