<svg width="64" height="64" viewBox="0 0 64 64" fill="none" xmlns="http://www.w3.org/2000/svg">
<path d="M48 0C56.8366 0 64 7.16344 64 16V48C64 56.8366 56.8366 64 48 64H16C7.16344 64 0 56.8366 0 48V16C0 7.16344 7.16344 0 16 0H48Z" fill="#D1FAE5"/>
<path d="M48 0C56.8366 0 64 7.16344 64 16V48C64 56.8366 56.8366 64 48 64H16C7.16344 64 0 56.8366 0 48V16C0 7.16344 7.16344 0 16 0H48Z" stroke="#E5E7EB"/>
<path d="M44 48H20V16H44V48Z" stroke="#E5E7EB"/>
<g clip-path="url(#clip0_619_1419)">
<path d="M32 19C32.2156 19 32.4313 19.0469 32.6281 19.1359L41.4547 22.8813C42.486 23.3172 43.2547 24.3344 43.25 25.5625C43.2266 30.2125 41.3141 38.7203 33.2375 42.5875C32.4547 42.9625 31.5453 42.9625 30.7625 42.5875C22.686 38.7203 20.7735 30.2125 20.75 25.5625C20.7453 24.3344 21.5141 23.3172 22.5453 22.8813L31.3766 19.1359C31.5688 19.0469 31.7844 19 32 19ZM32 22.1313V39.85C38.4688 36.7188 40.2078 29.7859 40.25 25.6281L32 22.1313Z" fill="#059669"/>
</g>
<defs>
<clipPath id="clip0_619_1419">
<path d="M20 19H44V43H20V19Z" fill="white"/>
</clipPath>
</defs>
</svg>
