<svg width="18" height="21" viewBox="0 0 18 21" fill="none" xmlns="http://www.w3.org/2000/svg">
<path d="M18 21H0V0H18V21Z" stroke="#E5E7EB"/>
<g clip-path="url(#clip0_619_1511)">
<path d="M9.00002 1.25C9.16173 1.25 9.32345 1.28516 9.47111 1.35195L16.091 4.16094C16.8645 4.48789 17.441 5.25078 17.4375 6.17188C17.4199 9.65938 15.9856 16.0402 9.92814 18.9406C9.34103 19.2219 8.659 19.2219 8.07189 18.9406C2.01447 16.0402 0.580094 9.65938 0.562516 6.17188C0.559 5.25078 1.13556 4.48789 1.909 4.16094L8.53244 1.35195C8.67658 1.28516 8.8383 1.25 9.00002 1.25ZM9.00002 3.59844V16.8875C13.8516 14.5391 15.1559 9.33945 15.1875 6.22109L9.00002 3.59844Z" fill="white"/>
</g>
<defs>
<clipPath id="clip0_619_1511">
<path d="M0 1.25H18V19.25H0V1.25Z" fill="white"/>
</clipPath>
</defs>
</svg>
