<svg width="64" height="64" viewBox="0 0 64 64" fill="none" xmlns="http://www.w3.org/2000/svg">
<path d="M32 0C49.6731 0 64 14.3269 64 32C64 49.6731 49.6731 64 32 64C14.3269 64 0 49.6731 0 32C0 14.3269 14.3269 0 32 0Z" fill="#059669"/>
<path d="M32 0C49.6731 0 64 14.3269 64 32C64 49.6731 49.6731 64 32 64C14.3269 64 0 49.6731 0 32C0 14.3269 14.3269 0 32 0Z" stroke="#E5E7EB"/>
<path d="M41 48H23V16H41V48Z" stroke="#E5E7EB"/>
<g clip-path="url(#clip0_619_1397)">
<path d="M26 19C24.3453 19 23 20.3453 23 22V40C23 41.6547 24.3453 43 26 43H38C39.6547 43 41 41.6547 41 40V26.5H35C34.1703 26.5 33.5 25.8297 33.5 25V19H26ZM35 19V25H41L35 19ZM28.25 31H35.75C36.1625 31 36.5 31.3375 36.5 31.75C36.5 32.1625 36.1625 32.5 35.75 32.5H28.25C27.8375 32.5 27.5 32.1625 27.5 31.75C27.5 31.3375 27.8375 31 28.25 31ZM28.25 34H35.75C36.1625 34 36.5 34.3375 36.5 34.75C36.5 35.1625 36.1625 35.5 35.75 35.5H28.25C27.8375 35.5 27.5 35.1625 27.5 34.75C27.5 34.3375 27.8375 34 28.25 34ZM28.25 37H35.75C36.1625 37 36.5 37.3375 36.5 37.75C36.5 38.1625 36.1625 38.5 35.75 38.5H28.25C27.8375 38.5 27.5 38.1625 27.5 37.75C27.5 37.3375 27.8375 37 28.25 37Z" fill="white"/>
</g>
<defs>
<clipPath id="clip0_619_1397">
<path d="M23 19H41V43H23V19Z" fill="white"/>
</clipPath>
</defs>
</svg>
