<svg width="48" height="48" viewBox="0 0 48 48" fill="none" xmlns="http://www.w3.org/2000/svg">
<path d="M36 0C42.6274 0 48 5.37258 48 12V36C48 42.6274 42.6274 48 36 48H12C5.37258 48 0 42.6274 0 36V12C0 5.37258 5.37258 0 12 0H36Z" fill="#D1FAE5"/>
<path d="M36 0C42.6274 0 48 5.37258 48 12V36C48 42.6274 42.6274 48 36 48H12C5.37258 48 0 42.6274 0 36V12C0 5.37258 5.37258 0 12 0H36Z" stroke="#E5E7EB"/>
<path d="M31.5 38H16.5V10H31.5V38Z" stroke="#E5E7EB"/>
<g clip-path="url(#clip0_619_1480)">
<path d="M18.375 13.5C17.3398 13.5 16.5 14.3398 16.5 15.375V31.625C16.5 32.6602 17.3398 33.5 18.375 33.5H22.125V30.375C22.125 29.3398 22.9648 28.5 24 28.5C25.0352 28.5 25.875 29.3398 25.875 30.375V33.5H29.625C30.6602 33.5 31.5 32.6602 31.5 31.625V15.375C31.5 14.3398 30.6602 13.5 29.625 13.5H18.375ZM19 22.875C19 22.5312 19.2812 22.25 19.625 22.25H20.875C21.2188 22.25 21.5 22.5312 21.5 22.875V24.125C21.5 24.4688 21.2188 24.75 20.875 24.75H19.625C19.2812 24.75 19 24.4688 19 24.125V22.875ZM23.375 22.25H24.625C24.9688 22.25 25.25 22.5312 25.25 22.875V24.125C25.25 24.4688 24.9688 24.75 24.625 24.75H23.375C23.0312 24.75 22.75 24.4688 22.75 24.125V22.875C22.75 22.5312 23.0312 22.25 23.375 22.25ZM26.5 22.875C26.5 22.5312 26.7812 22.25 27.125 22.25H28.375C28.7188 22.25 29 22.5312 29 22.875V24.125C29 24.4688 28.7188 24.75 28.375 24.75H27.125C26.7812 24.75 26.5 24.4688 26.5 24.125V22.875ZM19.625 17.25H20.875C21.2188 17.25 21.5 17.5312 21.5 17.875V19.125C21.5 19.4688 21.2188 19.75 20.875 19.75H19.625C19.2812 19.75 19 19.4688 19 19.125V17.875C19 17.5312 19.2812 17.25 19.625 17.25ZM22.75 17.875C22.75 17.5312 23.0312 17.25 23.375 17.25H24.625C24.9688 17.25 25.25 17.5312 25.25 17.875V19.125C25.25 19.4688 24.9688 19.75 24.625 19.75H23.375C23.0312 19.75 22.75 19.4688 22.75 19.125V17.875ZM27.125 17.25H28.375C28.7188 17.25 29 17.5312 29 17.875V19.125C29 19.4688 28.7188 19.75 28.375 19.75H27.125C26.7812 19.75 26.5 19.4688 26.5 19.125V17.875C26.5 17.5312 26.7812 17.25 27.125 17.25Z" fill="#059669"/>
</g>
<defs>
<clipPath id="clip0_619_1480">
<path d="M16.5 13.5H31.5V33.5H16.5V13.5Z" fill="white"/>
</clipPath>
</defs>
</svg>
