<svg width="64" height="64" viewBox="0 0 64 64" fill="none" xmlns="http://www.w3.org/2000/svg">
<path d="M48 0C56.8366 0 64 7.16344 64 16V48C64 56.8366 56.8366 64 48 64H16C7.16344 64 0 56.8366 0 48V16C0 7.16344 7.16344 0 16 0H48Z" fill="#D1FAE5"/>
<path d="M48 0C56.8366 0 64 7.16344 64 16V48C64 56.8366 56.8366 64 48 64H16C7.16344 64 0 56.8366 0 48V16C0 7.16344 7.16344 0 16 0H48Z" stroke="#E5E7EB"/>
<path d="M42.5 48H21.5V16H42.5V48Z" stroke="#E5E7EB"/>
<g clip-path="url(#clip0_619_1423)">
<path d="M37.8781 21.091C38.1547 20.4489 37.9484 19.6989 37.3812 19.2864C36.8141 18.8739 36.0406 18.9114 35.5109 19.3707L23.5109 29.8707C23.0422 30.2832 22.8734 30.9442 23.0937 31.5254C23.3141 32.1067 23.8766 32.5004 24.5 32.5004H29.7266L26.1219 40.9098C25.8453 41.552 26.0516 42.302 26.6187 42.7145C27.1859 43.127 27.9594 43.0895 28.4891 42.6301L40.4891 32.1301C40.9578 31.7176 41.1266 31.0567 40.9062 30.4754C40.6859 29.8942 40.1281 29.5051 39.5 29.5051H34.2734L37.8781 21.091Z" fill="#059669"/>
</g>
<defs>
<clipPath id="clip0_619_1423">
<path d="M21.5 19H42.5V43H21.5V19Z" fill="white"/>
</clipPath>
</defs>
</svg>
