<svg width="64" height="64" viewBox="0 0 64 64" fill="none" xmlns="http://www.w3.org/2000/svg">
<path d="M48 0C56.8366 0 64 7.16344 64 16V48C64 56.8366 56.8366 64 48 64H16C7.16344 64 0 56.8366 0 48V16C0 7.16344 7.16344 0 16 0H48Z" fill="#D1FAE5"/>
<path d="M48 0C56.8366 0 64 7.16344 64 16V48C64 56.8366 56.8366 64 48 64H16C7.16344 64 0 56.8366 0 48V16C0 7.16344 7.16344 0 16 0H48Z" stroke="#E5E7EB"/>
<path d="M44 48H20V16H44V48Z" stroke="#E5E7EB"/>
<g clip-path="url(#clip0_619_1431)">
<path d="M36.5 31C36.5 32.0406 36.4438 33.0437 36.3453 34H27.6547C27.5516 33.0437 27.5 32.0406 27.5 31C27.5 29.9594 27.5563 28.9563 27.6547 28H36.3453C36.4484 28.9563 36.5 29.9594 36.5 31ZM37.85 28H43.6203C43.8687 28.9609 44 29.9641 44 31C44 32.0359 43.8687 33.0391 43.6203 34H37.85C37.9484 33.0344 38 32.0312 38 31C38 29.9688 37.9484 28.9656 37.85 28ZM43.1281 26.5H37.6578C37.1891 23.5047 36.2609 20.9969 35.0656 19.3937C38.7359 20.3641 41.7219 23.0266 43.1234 26.5H43.1281ZM36.1391 26.5H27.8609C28.1469 24.7937 28.5875 23.2844 29.1266 22.0609C29.6187 20.9547 30.1672 20.1531 30.6969 19.6469C31.2219 19.15 31.6578 19 32 19C32.3422 19 32.7781 19.15 33.3031 19.6469C33.8328 20.1531 34.3812 20.9547 34.8734 22.0609C35.4172 23.2797 35.8531 24.7891 36.1391 26.5ZM26.3422 26.5H20.8719C22.2781 23.0266 25.2594 20.3641 28.9344 19.3937C27.7391 20.9969 26.8109 23.5047 26.3422 26.5ZM20.3797 28H26.15C26.0516 28.9656 26 29.9688 26 31C26 32.0312 26.0516 33.0344 26.15 34H20.3797C20.1313 33.0391 20 32.0359 20 31C20 29.9641 20.1313 28.9609 20.3797 28ZM29.1266 39.9344C28.5828 38.7156 28.1469 37.2062 27.8609 35.5H36.1391C35.8531 37.2062 35.4125 38.7156 34.8734 39.9344C34.3812 41.0406 33.8328 41.8422 33.3031 42.3484C32.7781 42.85 32.3422 43 32 43C31.6578 43 31.2219 42.85 30.6969 42.3531C30.1672 41.8469 29.6187 41.0453 29.1266 39.9391V39.9344ZM26.3422 35.5C26.8109 38.4953 27.7391 41.0031 28.9344 42.6063C25.2594 41.6359 22.2781 38.9734 20.8719 35.5H26.3422ZM43.1281 35.5C41.7219 38.9734 38.7406 41.6359 35.0703 42.6063C36.2656 41.0031 37.1891 38.4953 37.6625 35.5H43.1281Z" fill="#059669"/>
</g>
<defs>
<clipPath id="clip0_619_1431">
<path d="M20 19H44V43H20V19Z" fill="white"/>
</clipPath>
</defs>
</svg>
