<svg width="16" height="16" viewBox="0 0 16 16" fill="none" xmlns="http://www.w3.org/2000/svg">
<g clip-path="url(#clip0_619_1581)">
<path d="M6.59381 0.227937C6.40631 0.0310619 6.12506 -0.0439381 5.86256 0.0248119C5.60006 0.0935619 5.39693 0.302937 5.32818 0.565437L4.83443 2.51856L2.89693 1.97169C2.63443 1.89669 2.35318 1.97169 2.16256 2.16231C1.97193 2.35294 1.89693 2.63419 1.97193 2.89669L2.51881 4.83419L0.565681 5.33106C0.303181 5.39669 0.0969311 5.60294 0.0250561 5.86544C-0.0468189 6.12794 0.0313061 6.40606 0.228181 6.59356L1.67193 7.99981L0.228181 9.40606C0.0313061 9.59356 -0.0436939 9.87481 0.0250561 10.1373C0.0938061 10.3998 0.303181 10.6029 0.565681 10.6717L2.51881 11.1654L1.97193 13.1029C1.89693 13.3654 1.97193 13.6467 2.16256 13.8373C2.35318 14.0279 2.63443 14.1029 2.89693 14.0279L4.83443 13.4811L5.32818 15.4342C5.39381 15.6967 5.60006 15.9029 5.86256 15.9748C6.12506 16.0467 6.40318 15.9686 6.59381 15.7748L8.00006 14.3311L9.40631 15.7748C9.59693 15.9686 9.87506 16.0467 10.1376 15.9748C10.4001 15.9029 10.6032 15.6967 10.6719 15.4342L11.1657 13.4811L13.1032 14.0279C13.3657 14.1029 13.6469 14.0279 13.8376 13.8373C14.0282 13.6467 14.1032 13.3654 14.0282 13.1029L13.4813 11.1654L15.4344 10.6717C15.6969 10.6061 15.9032 10.3998 15.9751 10.1373C16.0469 9.87481 15.9688 9.59669 15.7751 9.40606L14.3313 7.99981L15.7751 6.59356C15.9688 6.40294 16.0469 6.12481 15.9751 5.86231C15.9032 5.59981 15.6969 5.39669 15.4344 5.32794L13.4813 4.83419L14.0282 2.89669C14.1032 2.63419 14.0282 2.35294 13.8376 2.16231C13.6469 1.97169 13.3657 1.89669 13.1032 1.97169L11.1657 2.51856L10.6688 0.565437C10.6032 0.302937 10.3969 0.0966869 10.1344 0.0248119C9.87193 -0.0470631 9.59381 0.0310619 9.40631 0.227937L8.00006 1.67169L6.59381 0.227937Z" fill="#059669"/>
</g>
<defs>
<clipPath id="clip0_619_1581">
<path d="M0 0H16V16H0V0Z" fill="white"/>
</clipPath>
</defs>
</svg>
